<svg aria-hidden="true" style="position:absolute;width:0;height:0" xmlns="http://www.w3.org/2000/svg" overflow="hidden"><defs><symbol id="icon-header-arrow" viewBox="0 0 32 32"><path d="M3.235 21.654v7.11h25.53V3.234H3.235v7.112H.32V3.554A3.235 3.235 0 013.555.319h24.89a3.235 3.235 0 013.235 3.235v24.89a3.235 3.235 0 01-3.235 3.235H3.555A3.235 3.235 0 01.32 28.444v-6.79h2.915zm14.728-7.112l-4.915-4.915 2.064-2.064L23.546 16l-8.437 8.437-2.062-2.064 4.915-4.915H.32v-2.914h17.643z"/></symbol><symbol id="icon-header-circle" viewBox="0 0 40 32"><path d="M8 16H0l10 10 10-10h-8c0-6.62 5.38-12 12-12s12 5.38 12 12-5.38 12-12 12v4c8.84 0 16-7.16 16-16S32.84 0 24 0 8 7.16 8 16z"/></symbol><symbol id="icon-header-man" viewBox="0 0 27 32"><path d="M26.546 31.17h-3.087c0-5.14-4.37-9.321-9.745-9.321s-9.743 4.183-9.743 9.321H.884c0-6.822 5.757-12.367 12.83-12.367 7.075 0 12.832 5.547 12.832 12.367zM13.714 17.813c-4.666 0-8.466-3.752-8.466-8.358S9.047 1.1 13.716 1.1c4.67 0 8.471 3.749 8.471 8.355 0 4.61-3.8 8.357-8.472 8.357zm0-13.668c-2.967 0-5.379 2.382-5.379 5.309 0 2.93 2.412 5.312 5.379 5.312 2.971 0 5.384-2.382 5.384-5.31 0-2.927-2.417-5.309-5.382-5.309z"/></symbol><symbol id="icon-header-menu" viewBox="0 0 51 32"><path d="M1.6 32h48v-5.334h-48V32zm0-13.334h48v-5.331h-48v5.331zM1.6 0v5.334h48V0h-48z"/></symbol><symbol id="icon-header-search" viewBox="0 0 32 32"><path d="M22.222 19.556h-1.404l-.498-.48a11.448 11.448 0 002.791-7.512v-.009c0-6.382-5.174-11.556-11.556-11.556S-.001 5.173-.001 11.555c0 6.382 5.174 11.556 11.556 11.556 2.862 0 5.493-1.049 7.52-2.791l.48.498v1.404l8.889 8.871 2.649-2.649-8.871-8.889zm-10.666 0c-4.427 0-8-3.573-8-8s3.573-8 8-8 8 3.573 8 8-3.573 8-8 8z"/></symbol><symbol id="icon-header-up-arrow" viewBox="0 0 53 32"><path d="M0 29.589L26.667 3.28l26.667 26.309H.001z"/></symbol></defs></svg>